<svg id="Layer_1" enable-background="new 0 0 512 512" height="512" viewBox="0 0 512 512" width="512" xmlns="http://www.w3.org/2000/svg"><g><path d="m336 512h-216c-66.168 0-120-53.832-120-120v-272c0-66.168 53.832-120 120-120h272c66.168 0 120 53.832 120 120v94c0 11.046-8.954 20-20 20s-20-8.954-20-20v-94c0-44.112-35.888-80-80-80h-272c-44.112 0-80 35.888-80 80v272c0 44.112 35.888 80 80 80h216c11.046 0 20 8.954 20 20s-8.954 20-20 20zm-136-119v-83h64.5c57.622 0 104.5-46.879 104.5-104.5v-2c0-57.621-46.878-104.5-104.5-104.5s-104.5 46.879-104.5 104.5v189.5c0 11.046 8.954 20 20 20s20-8.954 20-20zm0-189.5c0-35.565 28.935-64.5 64.5-64.5s64.5 28.935 64.5 64.5v2c0 35.565-28.935 64.5-64.5 64.5h-64.5z"/><path d="m512 426.333c0-31.613-27.788-57.333-61.944-57.333-14.753 0-25.056-6.579-25.056-16 0-9.19 7.402-16.667 16.5-16.667 9.172 0 21.12 1 40.195 8.418 10.294 4.005 21.885-1.097 25.889-11.391 4.003-10.295-1.097-21.886-11.391-25.889-9.929-3.862-18.586-6.394-26.193-8.061v-15.41c0-11.046-8.954-20-20-20s-20 8.954-20 20v13.516c-25.658 5.343-45 28.189-45 55.484 0 16.046 7.023 30.632 19.776 41.07 11.932 9.767 27.59 14.93 45.279 14.93 11.895 0 21.944 7.938 21.944 17.333 0 8.879-8.255 16.667-17.667 16.667-7.343 0-25.767-2.692-43.946-9.919-10.264-4.078-21.894.934-25.973 11.198-4.08 10.265.934 21.894 11.198 25.974 11.583 4.604 23.665 7.888 34.387 9.969v11.778c0 11.046 8.954 20 20 20s20-8.954 20-20v-11.169c9.145-2.573 17.595-7.382 24.639-14.169 11.197-10.789 17.363-25.111 17.363-40.329z"/></g></svg>