<svg id="Capa_1" enable-background="new 0 0 511.761 511.761" height="512" viewBox="0 0 511.761 511.761" width="512" xmlns="http://www.w3.org/2000/svg"><g><path d="m491.71 363.313c-13.599-13.6-31.681-21.09-50.914-21.09s-37.315 7.49-50.914 21.09l-45.007 45.006h-21.345c9.095-12.279 14.479-27.467 14.479-43.886 0-8.284-6.716-15-15-15h-49.806c-16.278 0-31.909-7.384-48.458-15.202-17.358-8.2-35.307-16.679-56.294-18.074-18.353-1.221-36.753.787-54.685 5.965-19.093 5.513-32.845 22.415-34.643 41.971h-48.466c-8.284 0-15 6.716-15 15v117.668c0 8.284 6.716 15 15 15h306.303c17.743 0 34.426-6.91 46.974-19.457l107.776-107.778c5.859-5.857 5.859-15.354 0-21.213zm-446.053 30.78h33.263v87.668h-33.263zm317.064 76.997c-6.882 6.882-16.03 10.671-25.761 10.671h-228.04v-113.403c.023-8.021 5.438-15.182 13.171-17.414 14.573-4.209 29.504-5.843 44.371-4.854 15.309 1.018 29.959 7.938 45.47 15.267 18.813 8.887 38.265 18.076 61.272 18.076h32.165c-5.809 15.925-20.594 27.562-38.2 28.774-.719-.106-78.227-.179-78.227-.179-3.642 0-6.979 1.3-9.577 3.458-3.423 2.749-5.62 6.963-5.62 11.695 0 8.284 6.716 15 15 15l162.344.137c3.979 0 7.794-1.58 10.606-4.394l49.4-49.399c7.934-7.934 18.481-12.303 29.701-12.303 6.01 0 11.828 1.254 17.153 3.638z"/><path d="m289.082 313.26c86.366 0 156.63-70.264 156.63-156.63s-70.263-156.63-156.63-156.63-156.63 70.264-156.63 156.63 70.264 156.63 156.63 156.63zm0-283.26c69.824 0 126.63 56.806 126.63 126.63s-56.806 126.63-126.63 126.63-126.63-56.806-126.63-126.63 56.806-126.63 126.63-126.63z"/><path d="m244.696 132.706c10.087 0 19.751-8.87 19.285-19.284-.468-10.448-8.473-19.284-19.285-19.284-10.087 0-19.751 8.87-19.284 19.284.468 10.448 8.473 19.284 19.284 19.284z"/><path d="m314.184 201.222c.468 10.448 8.473 19.284 19.284 19.284 10.087 0 19.751-8.87 19.284-19.284-.468-10.448-8.473-19.284-19.284-19.284-10.087-.001-19.751 8.869-19.284 19.284z"/><path d="m251.475 247.781c1.896.796 3.863 1.173 5.798 1.173 5.861 0 11.428-3.457 13.838-9.199l65.73-156.62c3.206-7.639-.388-16.43-8.026-19.636-7.639-3.205-16.429.387-19.636 8.026l-65.73 156.62c-3.206 7.639.387 16.43 8.026 19.636z"/></g></svg>